<svg version="1.2" baseProfile="tiny-ps" xmlns="http://www.w3.org/2000/svg" viewBox="0 0 742 677" width="742" height="677">
	<title>Background</title>
	<style>
		tspan { white-space:pre }
		.shp0 { fill: #fe9430 } 
		.shp1 { fill: #fbb800 } 
	</style>
	<g id="Background">
		<path id="Path 0" class="shp0" d="M317 0.69C314.52 0.87 306.42 1.7 299 2.53C291.57 3.35 279.42 5.15 272 6.53C264.57 7.9 252.65 10.57 245.5 12.46C238.35 14.34 226.87 17.77 220 20.07C213.12 22.38 201.42 26.72 194 29.72C186.57 32.72 174.2 38.22 166.5 41.93C158.8 45.64 146.42 52.17 139 56.44C131.57 60.71 119.65 68.04 112.5 72.73C105.35 77.43 93.65 85.62 86.5 90.95C79.35 96.27 67.42 105.77 60 112.04C52.57 118.32 40.49 129.32 33.14 136.48C25.79 143.64 17.63 152.2 15.01 155.5C12.38 158.8 8.84 164.2 7.12 167.5C5.41 170.8 3.1 177.1 1.99 181.5C0.81 186.2 -0.02 192.8 -0.02 197.5C-0.02 202.3 0.8 208.7 2.03 213.5C3.16 217.9 5.42 224.2 7.06 227.5C8.69 230.8 11.98 235.97 14.36 239C16.74 242.02 21.57 246.7 25.09 249.4C28.62 252.09 33.97 255.43 37 256.82C40.02 258.21 45.65 260.16 49.5 261.16C53.94 262.3 60.16 262.97 66.5 262.98C73.29 263 78.59 262.4 83 261.14C86.57 260.12 91.97 258.04 95 256.51C98.02 254.99 102.3 252.37 104.5 250.69C106.7 249.02 113.67 242.4 120 235.99C126.32 229.59 136.22 220.32 142 215.4C147.77 210.48 157 203.04 162.5 198.87C168 194.7 178.35 187.47 185.5 182.8C192.65 178.14 203 171.79 208.5 168.7C214 165.61 224.35 160.43 231.5 157.18C238.65 153.93 249.45 149.46 255.5 147.24C261.55 145.02 272.8 141.61 280.5 139.68C288.2 137.74 299.67 135.34 306 134.34C314.51 133 322.95 132.53 338.5 132.56C353.03 132.58 363.04 133.12 371 134.3C377.32 135.25 387 137.16 392.5 138.56C398 139.95 407.22 142.7 413 144.67C418.77 146.64 428.9 150.68 435.5 153.65C442.1 156.62 452 161.6 457.5 164.72C463 167.84 473.35 174.31 480.5 179.11C487.65 183.9 498.22 191.63 504 196.27C509.77 200.92 518.55 208.41 523.5 212.91C528.45 217.41 537.16 226.14 542.85 232.3C548.54 238.46 556.45 247.77 560.42 253C564.4 258.22 569.38 265.2 571.5 268.5C573.61 271.8 577.41 278.1 579.94 282.5C582.47 286.9 586.63 295 589.19 300.5C591.74 306 595.39 315 597.3 320.5C599.21 326 601.93 335.22 603.35 341C604.77 346.77 606.63 356 607.48 361.5C608.34 367 609.32 379.37 609.66 389C610.04 399.8 609.82 411.66 609.08 420C608.42 427.42 607.01 438.67 605.94 445C604.87 451.32 602.61 462.12 600.91 469C599.22 475.87 595.58 488.25 592.83 496.5C590.08 504.75 585.12 517.8 581.81 525.5C578.5 533.2 573.15 544.67 569.92 551C566.7 557.32 561.12 567.22 557.53 573C553.94 578.77 550.09 586.2 548.99 589.5C547.89 592.8 546.47 599.32 545.83 604C544.94 610.58 544.96 614.31 545.92 620.5C546.6 624.9 548.31 631.42 549.71 635C551.12 638.57 554.17 644.42 556.51 648C558.84 651.57 563.62 657.12 567.12 660.32C570.63 663.52 576.87 667.84 581 669.92C585.12 672 592.1 674.5 596.5 675.49C602.45 676.82 607.06 677.15 614.5 676.78C621.67 676.43 626.69 675.54 632.25 673.64C636.51 672.19 642.81 669.24 646.25 667.1C649.69 664.95 655.42 660.08 659 656.27C662.57 652.46 668.42 644.66 671.98 638.92C675.55 633.19 683.44 618.6 689.52 606.5C695.6 594.4 703.78 576.4 707.69 566.5C711.61 556.6 717.14 541.3 719.98 532.5C722.82 523.7 726.89 509.3 729.02 500.5C731.14 491.7 733.79 479.55 734.9 473.5C736.01 467.45 737.59 457.32 738.4 451C739.21 444.67 740.42 432.52 741.08 424C741.81 414.49 742.04 400.39 741.67 387.5C741.35 375.95 740.42 361.1 739.61 354.5C738.81 347.9 737.41 338.22 736.51 333C735.61 327.77 733.76 318.77 732.41 313C731.05 307.22 728.17 296.65 726 289.5C723.83 282.35 719.84 270.87 717.14 264C714.44 257.12 709.68 246.1 706.56 239.5C703.44 232.9 698.59 223.45 695.79 218.5C693 213.55 686.08 202.52 680.44 194C674.79 185.47 665.32 172.42 659.39 165C653.43 157.53 639.44 142.31 628.06 130.93C616.75 119.61 603 106.63 597.5 102.07C592 97.52 582.55 90.1 576.5 85.59C570.45 81.07 561.22 74.42 556 70.8C550.77 67.18 541.1 60.95 534.5 56.95C527.9 52.94 516.2 46.4 508.5 42.4C500.8 38.41 487.52 32.24 479 28.7C470.47 25.16 457.65 20.37 450.5 18.05C443.35 15.73 431.2 12.29 423.5 10.41C415.8 8.53 402.3 5.89 393.5 4.53C384.7 3.18 371.2 1.61 363.5 1.04C355.8 0.47 343.2 0.08 335.5 0.18C327.8 0.27 319.47 0.5 317 0.69Z" />
		<path id="Path 1" class="shp1" d="M319 261.46C318.17 261.66 313.45 262.37 308.5 263.03C303.55 263.69 294.32 265.92 288 267.98C281.67 270.05 272.22 273.88 267 276.51C261.77 279.13 254.57 283.21 251 285.57C247.42 287.93 241.12 292.76 237 296.3C232.87 299.84 227.22 305.39 224.42 308.62C221.63 311.85 217.07 317.65 214.28 321.5C211.5 325.35 206.96 332.77 204.19 338C201.43 343.22 197.75 351.55 196.02 356.5C194.29 361.45 192.03 369.1 190.99 373.5C189.96 377.9 188.66 387.12 188.11 394C187.48 401.76 187.44 410.29 187.99 416.5C188.48 422 189.57 429.87 190.41 434C191.26 438.12 193.11 445.1 194.54 449.5C195.96 453.9 199.04 461.55 201.37 466.5C203.7 471.45 207.78 478.87 210.44 483C213.09 487.12 218.24 494.06 221.88 498.41C225.52 502.76 231.2 508.67 234.5 511.54C237.8 514.41 243.87 519.18 248 522.14C252.12 525.1 259.55 529.59 264.5 532.13C269.45 534.67 276.65 537.98 280.5 539.49C284.35 541 290.87 543.1 295 544.16C299.12 545.22 307.45 546.74 313.5 547.54C319.55 548.35 327.65 549.01 331.5 549.01C335.35 549 342.32 548.54 347 547.98C351.67 547.41 360.22 545.78 366 544.34C371.77 542.91 381.22 539.77 387 537.36C392.77 534.95 400.65 531.07 404.5 528.74C408.35 526.41 414.87 521.97 419 518.87C423.12 515.77 429.99 509.58 434.25 505.12C438.51 500.65 444.58 493.51 447.73 489.25C450.88 484.99 455.97 476.55 459.05 470.5C462.13 464.45 465.85 455.9 467.31 451.5C468.78 447.1 470.97 439 472.19 433.5C474.03 425.17 474.4 420.41 474.4 405C474.4 389.81 474.02 384.71 472.25 376.5C471.06 371 468.67 362.45 466.93 357.5C465.19 352.55 462.02 345.01 459.88 340.75C457.75 336.49 454.35 330.41 452.32 327.25C450.3 324.09 446.32 318.57 443.47 315C440.62 311.42 434.85 305.24 430.64 301.25C426.44 297.26 419.51 291.4 415.25 288.22C410.99 285.04 402.32 279.9 396 276.8C389.67 273.7 380.22 269.82 375 268.17C369.77 266.52 362.12 264.44 358 263.54C353.71 262.61 344.08 261.73 335.5 261.5C327.25 261.28 319.82 261.26 319 261.46Z" />
	</g>
</svg>